# xmcd CD database file
#
# Track frame offsets:
#        182
#        20875
#        35372
#        53650
#        67677
#        82960
#        98312
#        111765
#        129927
#        139167
#
# Disc length: 2258 seconds
#
# Revision: 0
# Processed by: cddbd v1.5.2PL0 Copyright (c) Steve Scherf et al.
# Submitted via: CUERipper 2.1.2a
#
DISCID=7208d00a
DTITLE=Neil Young - Harvest
DYEAR=1972
DGENRE=Classic Rock
TTITLE0=Out On The Weekend
TTITLE1=Harvest
TTITLE2=A Man Needs A Maid
TTITLE3=Heart Of Gold
TTITLE4=Are You Ready For The Country?
TTITLE5=Old Man
TTITLE6=There's A World
TTITLE7=Alabama
TTITLE8=The Needle And The Damage Done
TTITLE9=Words (Between The Lines Of Age)
EXTD=
EXTT0=
EXTT1=
EXTT2=
EXTT3=
EXTT4=
EXTT5=
EXTT6=
EXTT7=
EXTT8=
EXTT9=
PLAYORDER=
